<mxfile host="65bd71144e">
    <diagram id="KihlJWGZDi90QeMwlkpx" name="Page-1">
        <mxGraphModel dx="816" dy="3009" grid="0" gridSize="10" guides="1" tooltips="1" connect="1" arrows="1" fold="1" page="1" pageScale="1" pageWidth="1100" pageHeight="850" background="#FFFFFF" math="0" shadow="0">
            <root>
                <mxCell id="0"/>
                <mxCell id="1" parent="0"/>
                <mxCell id="3" value="&lt;h1&gt;&lt;font face=&quot;Times New Roman&quot;&gt;Gorilla Websocket Chat Server Application&lt;/font&gt;&lt;/h1&gt;&lt;div&gt;&lt;font face=&quot;Times New Roman&quot;&gt;&lt;br&gt;&lt;/font&gt;&lt;/div&gt;" style="text;html=1;strokeColor=none;fillColor=none;align=center;verticalAlign=middle;whiteSpace=wrap;rounded=0;" parent="1" vertex="1">
                    <mxGeometry x="326" y="-2525" width="460" height="30" as="geometry"/>
                </mxCell>
                <mxCell id="4" value="&lt;h2&gt;The Server Application Defines two Types:&lt;/h2&gt;" style="text;html=1;strokeColor=none;fillColor=none;align=center;verticalAlign=middle;whiteSpace=wrap;rounded=0;fontFamily=Times New Roman;" parent="1" vertex="1">
                    <mxGeometry x="349" y="-2475" width="410" height="30" as="geometry"/>
                </mxCell>
                <mxCell id="5" value="Client type" style="swimlane;fontStyle=1;childLayout=stackLayout;horizontal=1;startSize=26;fillColor=none;horizontalStack=0;resizeParent=1;resizeParentMax=0;resizeLast=0;collapsible=1;marginBottom=0;fontFamily=Times New Roman;fontSize=16;" parent="1" vertex="1">
                    <mxGeometry x="329" y="-2365" width="230" height="104" as="geometry"/>
                </mxCell>
                <mxCell id="6" value="GO Routine 1: msgFromHub.go" style="text;strokeColor=none;fillColor=none;align=left;verticalAlign=top;spacingLeft=4;spacingRight=4;overflow=hidden;rotatable=0;points=[[0,0.5],[1,0.5]];portConstraint=eastwest;fontFamily=Times New Roman;fontSize=16;" parent="5" vertex="1">
                    <mxGeometry y="26" width="230" height="26" as="geometry"/>
                </mxCell>
                <mxCell id="7" value="GO Routine 2: msgToHub.go" style="text;strokeColor=none;fillColor=none;align=left;verticalAlign=top;spacingLeft=4;spacingRight=4;overflow=hidden;rotatable=0;points=[[0,0.5],[1,0.5]];portConstraint=eastwest;fontFamily=Times New Roman;fontSize=16;" parent="5" vertex="1">
                    <mxGeometry y="52" width="230" height="26" as="geometry"/>
                </mxCell>
                <mxCell id="8" value="'Send' channel" style="text;strokeColor=none;fillColor=none;align=left;verticalAlign=top;spacingLeft=4;spacingRight=4;overflow=hidden;rotatable=0;points=[[0,0.5],[1,0.5]];portConstraint=eastwest;fontFamily=Times New Roman;fontSize=16;" parent="5" vertex="1">
                    <mxGeometry y="78" width="230" height="26" as="geometry"/>
                </mxCell>
                <mxCell id="9" value="Hub type" style="swimlane;fontStyle=1;childLayout=stackLayout;horizontal=1;startSize=26;fillColor=none;horizontalStack=0;resizeParent=1;resizeParentMax=0;resizeLast=0;collapsible=1;marginBottom=0;fontFamily=Times New Roman;fontSize=16;" parent="1" vertex="1">
                    <mxGeometry x="604" y="-2365" width="140" height="130" as="geometry"/>
                </mxCell>
                <mxCell id="10" value="'Clients' map" style="text;strokeColor=none;fillColor=none;align=left;verticalAlign=top;spacingLeft=4;spacingRight=4;overflow=hidden;rotatable=0;points=[[0,0.5],[1,0.5]];portConstraint=eastwest;fontFamily=Times New Roman;fontSize=16;" parent="9" vertex="1">
                    <mxGeometry y="26" width="140" height="26" as="geometry"/>
                </mxCell>
                <mxCell id="11" value="'Broadcast' channel" style="text;strokeColor=none;fillColor=none;align=left;verticalAlign=top;spacingLeft=4;spacingRight=4;overflow=hidden;rotatable=0;points=[[0,0.5],[1,0.5]];portConstraint=eastwest;fontFamily=Times New Roman;fontSize=16;" parent="9" vertex="1">
                    <mxGeometry y="52" width="140" height="26" as="geometry"/>
                </mxCell>
                <mxCell id="12" value="'Register' channel&#10;" style="text;strokeColor=none;fillColor=none;align=left;verticalAlign=top;spacingLeft=4;spacingRight=4;overflow=hidden;rotatable=0;points=[[0,0.5],[1,0.5]];portConstraint=eastwest;fontFamily=Times New Roman;fontSize=16;" parent="9" vertex="1">
                    <mxGeometry y="78" width="140" height="26" as="geometry"/>
                </mxCell>
                <mxCell id="13" value="'Unregister' channel" style="text;strokeColor=none;fillColor=none;align=left;verticalAlign=top;spacingLeft=4;spacingRight=4;overflow=hidden;rotatable=0;points=[[0,0.5],[1,0.5]];portConstraint=eastwest;fontFamily=Times New Roman;fontSize=16;" parent="9" vertex="1">
                    <mxGeometry y="104" width="140" height="26" as="geometry"/>
                </mxCell>
                <mxCell id="14" value="" style="endArrow=classic;html=1;fontFamily=Times New Roman;fontSize=16;entryX=0.5;entryY=0;entryDx=0;entryDy=0;" parent="1" target="9" edge="1">
                    <mxGeometry width="50" height="50" relative="1" as="geometry">
                        <mxPoint x="554" y="-2455" as="sourcePoint"/>
                        <mxPoint x="569" y="-2335" as="targetPoint"/>
                        <Array as="points"/>
                    </mxGeometry>
                </mxCell>
                <mxCell id="16" value="" style="endArrow=classic;html=1;fontFamily=Times New Roman;fontSize=16;entryX=0.5;entryY=0;entryDx=0;entryDy=0;" parent="1" target="5" edge="1">
                    <mxGeometry width="50" height="50" relative="1" as="geometry">
                        <mxPoint x="554" y="-2455" as="sourcePoint"/>
                        <mxPoint x="639" y="-2345" as="targetPoint"/>
                        <Array as="points"/>
                    </mxGeometry>
                </mxCell>
                <mxCell id="18" value="&lt;h2&gt;&lt;/h2&gt;&lt;h4&gt;What Client Does:&lt;/h4&gt;&lt;h5 style=&quot;font-size: 17px&quot;&gt;&lt;span style=&quot;font-weight: 400&quot;&gt;Is an intermediary between the websocket and the 'Hub' type&lt;/span&gt;&lt;/h5&gt;" style="text;html=1;strokeColor=none;fillColor=none;spacing=5;spacingTop=-20;whiteSpace=wrap;overflow=hidden;rounded=0;fontFamily=Times New Roman;fontSize=16;" parent="1" vertex="1">
                    <mxGeometry x="120" y="-2377" width="190" height="120" as="geometry"/>
                </mxCell>
                <mxCell id="19" value="&lt;h2&gt;&lt;/h2&gt;&lt;h4&gt;What Hub Does:&lt;/h4&gt;&lt;h5 style=&quot;font-size: 17px&quot;&gt;&lt;span style=&quot;font-weight: 400&quot;&gt;Maintains a set of registered 'Clients' and broadcasts messages to each 'Client'&lt;/span&gt;&lt;/h5&gt;" style="text;html=1;strokeColor=none;fillColor=none;spacing=5;spacingTop=-20;whiteSpace=wrap;overflow=hidden;rounded=0;fontFamily=Times New Roman;fontSize=16;" parent="1" vertex="1">
                    <mxGeometry x="786" y="-2373" width="190" height="140" as="geometry"/>
                </mxCell>
                <mxCell id="20" value="&lt;b style=&quot;font-size: 19px;&quot;&gt;Websocket Connections = 'Clients'&lt;/b&gt;" style="text;html=1;strokeColor=none;fillColor=none;align=center;verticalAlign=middle;whiteSpace=wrap;rounded=0;fontFamily=Times New Roman;fontSize=19;" parent="1" vertex="1">
                    <mxGeometry x="20" y="-2206" width="290" height="30" as="geometry"/>
                </mxCell>
                <mxCell id="24" value="" style="shape=actor;whiteSpace=wrap;html=1;fontFamily=Times New Roman;fontSize=17;" parent="1" vertex="1">
                    <mxGeometry x="20" y="-2168" width="40" height="60" as="geometry"/>
                </mxCell>
                <mxCell id="26" value="" style="shape=actor;whiteSpace=wrap;html=1;fontFamily=Times New Roman;fontSize=17;" parent="1" vertex="1">
                    <mxGeometry x="20" y="-2038" width="40" height="60" as="geometry"/>
                </mxCell>
                <mxCell id="27" value="" style="shape=actor;whiteSpace=wrap;html=1;fontFamily=Times New Roman;fontSize=17;" parent="1" vertex="1">
                    <mxGeometry x="20" y="-1908" width="40" height="60" as="geometry"/>
                </mxCell>
                <mxCell id="28" value="Websocket 1" style="text;html=1;strokeColor=none;fillColor=none;align=center;verticalAlign=middle;whiteSpace=wrap;rounded=0;fontFamily=Times New Roman;fontSize=17;" parent="1" vertex="1">
                    <mxGeometry x="5" y="-2108" width="90" height="30" as="geometry"/>
                </mxCell>
                <mxCell id="29" value="Websocket 2" style="text;html=1;strokeColor=none;fillColor=none;align=center;verticalAlign=middle;whiteSpace=wrap;rounded=0;fontFamily=Times New Roman;fontSize=17;" parent="1" vertex="1">
                    <mxGeometry x="15" y="-1978" width="90" height="30" as="geometry"/>
                </mxCell>
                <mxCell id="30" value="Websocket 3" style="text;html=1;strokeColor=none;fillColor=none;align=center;verticalAlign=middle;whiteSpace=wrap;rounded=0;fontFamily=Times New Roman;fontSize=17;" parent="1" vertex="1">
                    <mxGeometry x="5" y="-1848" width="90" height="30" as="geometry"/>
                </mxCell>
                <mxCell id="31" value="&lt;span style=&quot;font-weight: normal&quot;&gt;msgFromHub.go&lt;/span&gt;" style="text;html=1;strokeColor=none;fillColor=none;align=center;verticalAlign=middle;whiteSpace=wrap;rounded=0;fontFamily=Times New Roman;fontSize=17;fontStyle=1" parent="1" vertex="1">
                    <mxGeometry x="100" y="-2158" width="130" height="30" as="geometry"/>
                </mxCell>
                <mxCell id="32" value="&lt;font style=&quot;font-size: 16px&quot;&gt;&lt;b&gt;Client 1 'Send' Channel&lt;/b&gt;&lt;/font&gt;" style="shape=doubleArrow;whiteSpace=wrap;html=1;fontFamily=Times New Roman;fontSize=17;" parent="1" vertex="1">
                    <mxGeometry x="230" y="-2181" width="250" height="80" as="geometry"/>
                </mxCell>
                <mxCell id="33" value="" style="endArrow=classic;html=1;fontFamily=Times New Roman;fontSize=16;exitX=0;exitY=0.5;exitDx=0;exitDy=0;" parent="1" edge="1">
                    <mxGeometry width="50" height="50" relative="1" as="geometry">
                        <mxPoint x="100" y="-2141" as="sourcePoint"/>
                        <mxPoint x="60" y="-2141" as="targetPoint"/>
                    </mxGeometry>
                </mxCell>
                <mxCell id="35" value="" style="endArrow=classic;html=1;fontFamily=Times New Roman;fontSize=16;exitX=-0.011;exitY=0.109;exitDx=0;exitDy=0;exitPerimeter=0;" parent="1" target="32" edge="1">
                    <mxGeometry width="50" height="50" relative="1" as="geometry">
                        <mxPoint x="755.8199999999999" y="-2142.8500000000004" as="sourcePoint"/>
                        <mxPoint x="640" y="-2141" as="targetPoint"/>
                        <Array as="points">
                            <mxPoint x="640" y="-2143"/>
                        </Array>
                    </mxGeometry>
                </mxCell>
                <mxCell id="83" value="" style="group" parent="1" vertex="1" connectable="0">
                    <mxGeometry x="90" y="-2111" width="668" height="30" as="geometry"/>
                </mxCell>
                <mxCell id="79" value="&lt;span style=&quot;font-weight: normal&quot;&gt;msgToHub.go&lt;/span&gt;" style="text;html=1;strokeColor=none;fillColor=none;align=center;verticalAlign=middle;whiteSpace=wrap;rounded=0;fontFamily=Times New Roman;fontSize=17;fontStyle=1" parent="83" vertex="1">
                    <mxGeometry width="131.5757575757576" height="30" as="geometry"/>
                </mxCell>
                <mxCell id="82" value="" style="edgeStyle=elbowEdgeStyle;elbow=horizontal;endArrow=classic;html=1;fontFamily=Times New Roman;fontSize=19;exitX=0.5;exitY=1;exitDx=0;exitDy=0;" parent="83" source="79" edge="1">
                    <mxGeometry width="50" height="50" relative="1" as="geometry">
                        <mxPoint x="91.0909090909091" y="40" as="sourcePoint"/>
                        <mxPoint x="668" as="targetPoint"/>
                    </mxGeometry>
                </mxCell>
                <mxCell id="87" value="" style="group" parent="1" vertex="1" connectable="0">
                    <mxGeometry x="103" y="-1828" width="660" height="30" as="geometry"/>
                </mxCell>
                <mxCell id="88" value="&lt;span style=&quot;font-weight: normal&quot;&gt;msgToHub.go&lt;/span&gt;" style="text;html=1;strokeColor=none;fillColor=none;align=center;verticalAlign=middle;whiteSpace=wrap;rounded=0;fontFamily=Times New Roman;fontSize=17;fontStyle=1" parent="87" vertex="1">
                    <mxGeometry width="130" height="30" as="geometry"/>
                </mxCell>
                <mxCell id="89" value="" style="edgeStyle=elbowEdgeStyle;elbow=horizontal;endArrow=classic;html=1;fontFamily=Times New Roman;fontSize=19;exitX=0.5;exitY=1;exitDx=0;exitDy=0;" parent="87" source="88" edge="1">
                    <mxGeometry width="50" height="50" relative="1" as="geometry">
                        <mxPoint x="90" y="40" as="sourcePoint"/>
                        <mxPoint x="660" as="targetPoint"/>
                    </mxGeometry>
                </mxCell>
                <mxCell id="44" value="&lt;span style=&quot;font-weight: normal&quot;&gt;msgFromHub.go&lt;/span&gt;" style="text;html=1;strokeColor=none;fillColor=none;align=center;verticalAlign=middle;whiteSpace=wrap;rounded=0;fontFamily=Times New Roman;fontSize=17;fontStyle=1" parent="1" vertex="1">
                    <mxGeometry x="103" y="-1883" width="130" height="30" as="geometry"/>
                </mxCell>
                <mxCell id="45" value="&lt;font style=&quot;font-size: 16px&quot;&gt;&lt;b&gt;Client 3 'Send' Channel&lt;/b&gt;&lt;/font&gt;" style="shape=doubleArrow;whiteSpace=wrap;html=1;fontFamily=Times New Roman;fontSize=17;" parent="1" vertex="1">
                    <mxGeometry x="233" y="-1908" width="250" height="80" as="geometry"/>
                </mxCell>
                <mxCell id="46" value="" style="endArrow=classic;html=1;fontFamily=Times New Roman;fontSize=16;exitX=0;exitY=0.5;exitDx=0;exitDy=0;" parent="1" source="44" edge="1">
                    <mxGeometry width="50" height="50" relative="1" as="geometry">
                        <mxPoint x="143" y="-1938" as="sourcePoint"/>
                        <mxPoint x="63" y="-1868" as="targetPoint"/>
                    </mxGeometry>
                </mxCell>
                <mxCell id="91" value="" style="endArrow=classic;html=1;fontFamily=Times New Roman;fontSize=16;" parent="1" edge="1">
                    <mxGeometry width="50" height="50" relative="1" as="geometry">
                        <mxPoint x="759" y="-1867" as="sourcePoint"/>
                        <mxPoint x="483" y="-1867.39694226835" as="targetPoint"/>
                        <Array as="points">
                            <mxPoint x="653" y="-1867"/>
                        </Array>
                    </mxGeometry>
                </mxCell>
                <mxCell id="177" value="" style="endArrow=classic;html=1;fontFamily=Times New Roman;fontSize=16;exitX=0;exitY=0.5;exitDx=0;exitDy=0;" parent="1" source="178" edge="1">
                    <mxGeometry width="50" height="50" relative="1" as="geometry">
                        <mxPoint x="140" y="-2073" as="sourcePoint"/>
                        <mxPoint x="60" y="-2003" as="targetPoint"/>
                    </mxGeometry>
                </mxCell>
                <mxCell id="178" value="&lt;span style=&quot;font-weight: normal&quot;&gt;msgFromHub.go&lt;/span&gt;" style="text;html=1;strokeColor=none;fillColor=none;align=center;verticalAlign=middle;whiteSpace=wrap;rounded=0;fontFamily=Times New Roman;fontSize=17;fontStyle=1" parent="1" vertex="1">
                    <mxGeometry x="100" y="-2018" width="130" height="30" as="geometry"/>
                </mxCell>
                <mxCell id="179" value="" style="group" parent="1" vertex="1" connectable="0">
                    <mxGeometry x="90" y="-1963" width="667" height="30" as="geometry"/>
                </mxCell>
                <mxCell id="180" value="&lt;span style=&quot;font-weight: normal&quot;&gt;msgToHub.go&lt;/span&gt;" style="text;html=1;strokeColor=none;fillColor=none;align=center;verticalAlign=middle;whiteSpace=wrap;rounded=0;fontFamily=Times New Roman;fontSize=17;fontStyle=1" parent="179" vertex="1">
                    <mxGeometry width="131.37878787878788" height="30" as="geometry"/>
                </mxCell>
                <mxCell id="181" value="" style="edgeStyle=elbowEdgeStyle;elbow=horizontal;endArrow=classic;html=1;fontFamily=Times New Roman;fontSize=19;exitX=0.5;exitY=1;exitDx=0;exitDy=0;" parent="179" source="180" edge="1">
                    <mxGeometry width="50" height="50" relative="1" as="geometry">
                        <mxPoint x="90.95454545454544" y="40" as="sourcePoint"/>
                        <mxPoint x="666.9999999999999" as="targetPoint"/>
                    </mxGeometry>
                </mxCell>
                <mxCell id="182" value="&lt;font style=&quot;font-size: 16px&quot;&gt;&lt;b&gt;Client 2 'Send' Channel&lt;/b&gt;&lt;/font&gt;" style="shape=doubleArrow;whiteSpace=wrap;html=1;fontFamily=Times New Roman;fontSize=17;" parent="1" vertex="1">
                    <mxGeometry x="230" y="-2043" width="250" height="80" as="geometry"/>
                </mxCell>
                <mxCell id="183" value="" style="endArrow=classic;html=1;fontFamily=Times New Roman;fontSize=16;exitX=-0.011;exitY=0.109;exitDx=0;exitDy=0;exitPerimeter=0;" parent="1" edge="1">
                    <mxGeometry width="50" height="50" relative="1" as="geometry">
                        <mxPoint x="760" y="-2003.67" as="sourcePoint"/>
                        <mxPoint x="484.18000000000006" y="-2002.3969422683501" as="targetPoint"/>
                    </mxGeometry>
                </mxCell>
                <mxCell id="198" value="&lt;b style=&quot;font-size: 19px;&quot;&gt;Hub channels&lt;/b&gt;" style="text;html=1;strokeColor=none;fillColor=none;align=center;verticalAlign=middle;whiteSpace=wrap;rounded=0;fontFamily=Times New Roman;fontSize=19;" parent="1" vertex="1">
                    <mxGeometry x="736" y="-2214" width="160" height="30" as="geometry"/>
                </mxCell>
                <mxCell id="199" value="&lt;b style=&quot;font-size: 19px;&quot;&gt;Hub set of registered 'Clients'&lt;/b&gt;" style="text;html=1;strokeColor=none;fillColor=none;align=center;verticalAlign=middle;whiteSpace=wrap;rounded=0;fontFamily=Times New Roman;fontSize=19;" parent="1" vertex="1">
                    <mxGeometry x="905" y="-2226" width="158" height="30" as="geometry"/>
                </mxCell>
                <mxCell id="200" value="'Clients' map" style="swimlane;fontSize=17;fontFamily=Times New Roman;" parent="1" vertex="1">
                    <mxGeometry x="896" y="-2181" width="200" height="140" as="geometry"/>
                </mxCell>
                <mxCell id="201" value="&lt;span&gt;[&amp;amp;Client_2] true&lt;/span&gt;" style="text;html=1;strokeColor=none;fillColor=none;align=center;verticalAlign=middle;whiteSpace=wrap;rounded=0;fontFamily=Times New Roman;fontSize=17;" parent="200" vertex="1">
                    <mxGeometry y="70" width="140" height="30" as="geometry"/>
                </mxCell>
                <mxCell id="202" value="&lt;span&gt;[&amp;amp;Client_3] true&lt;/span&gt;" style="text;html=1;strokeColor=none;fillColor=none;align=center;verticalAlign=middle;whiteSpace=wrap;rounded=0;fontFamily=Times New Roman;fontSize=17;" parent="200" vertex="1">
                    <mxGeometry y="100" width="140" height="30" as="geometry"/>
                </mxCell>
                <mxCell id="203" value="[&amp;amp;Client_1] true" style="text;html=1;align=center;verticalAlign=middle;resizable=0;points=[];autosize=1;strokeColor=none;fillColor=none;fontSize=17;fontFamily=Times New Roman;" parent="200" vertex="1">
                    <mxGeometry x="5" y="40" width="130" height="30" as="geometry"/>
                </mxCell>
                <mxCell id="204" value="" style="swimlane;childLayout=stackLayout;resizeParent=1;resizeParentMax=0;startSize=5;horizontal=0;horizontalStack=1;fontFamily=Times New Roman;fontSize=17;" parent="1" vertex="1">
                    <mxGeometry x="763" y="-2182" width="95" height="367" as="geometry"/>
                </mxCell>
                <mxCell id="205" value="Broadcast" style="swimlane;startSize=20;fontFamily=Times New Roman;fontSize=17;" parent="204" vertex="1" collapsed="1">
                    <mxGeometry x="5" width="30" height="367" as="geometry">
                        <mxRectangle x="5" width="119" height="367" as="alternateBounds"/>
                    </mxGeometry>
                </mxCell>
                <mxCell id="206" value="Register" style="swimlane;startSize=20;fontFamily=Times New Roman;fontSize=17;" parent="204" vertex="1" collapsed="1">
                    <mxGeometry x="35" width="30" height="367" as="geometry">
                        <mxRectangle x="125" width="120" height="367" as="alternateBounds"/>
                    </mxGeometry>
                </mxCell>
                <mxCell id="207" value="Unregister" style="swimlane;startSize=20;fontFamily=Times New Roman;fontSize=17;" parent="204" vertex="1" collapsed="1">
                    <mxGeometry x="65" width="30" height="367" as="geometry">
                        <mxRectangle x="245" width="120" height="367" as="alternateBounds"/>
                    </mxGeometry>
                </mxCell>
                <mxCell id="209" value="Helena Sedmak, December 2022" style="text;html=1;strokeColor=none;fillColor=none;align=center;verticalAlign=middle;whiteSpace=wrap;rounded=0;fontFamily=Times New Roman;fontSize=19;" parent="1" vertex="1">
                    <mxGeometry x="772" y="-1740" width="310" height="30" as="geometry"/>
                </mxCell>
            </root>
        </mxGraphModel>
    </diagram>
</mxfile>